# xmcd
#
# Track frame offsets: 
#        150
#        16623
#        33060
#        44382
#        56323
#        69747
#        90208
#        103714
#        118626
#        137188
#
# Disc length: 2008 seconds
#
# Revision: 0
# Processed by: cddbd v1.5.2PL0 Copyright (c) Steve Scherf et al.
# Submitted via: ExactAudioCopy v1.0b1
#
DISCID=7407d60a
DTITLE=Pegi Young - Foul Deeds
DYEAR=2010
DGENRE=Country
TTITLE0=Pleasing To Me
TTITLE1=Broken Vows
TTITLE2=Foul Deeds
TTITLE3=Starting Over
TTITLE4=Who Knew
TTITLE5=Side Of The Road
TTITLE6=Blue Sunday
TTITLE7=Traveling
TTITLE8=Body Breaks
TTITLE9=Traveling (with band)
EXTD=
EXTT0=
EXTT1=
EXTT2=
EXTT3=
EXTT4=
EXTT5=
EXTT6=
EXTT7=
EXTT8=
EXTT9=
PLAYORDER=
